# xmcd
#
# Track frame offsets:
#	300
#	24416
#	53888
#	86021
#	111458
#	145520
#	168763
#	201479
#	227834
#	258608
#	293108
#
# Disc length: 4308 seconds
#
# Revision: 2
# Processed by: cddbd v1.5.2PL0 Copyright (c) Steve Scherf et al.
# Submitted via: audiograbber 1.83.01
#
DISCID=9e10d00b
DTITLE=CD Pool - Remix January 2011
DYEAR=2011
DGENRE=Dance
TTITLE0=David Guetta Ft Rihanna - Who's That Chick (FMIF Remix)
TTITLE1=Joyce Sims - Lifetime Love 2011 (Loverush UK! 2011 Club Mix)
TTITLE2=Sebastian Krieg and Strobe - Twist In My Sobriety (Strobe Club Mix)
TTITLE3=Kelly Rowland - Forever and A Day (Antoine Clamaran Extended Mix)
TTITLE4=Dionne Mitchell - I Love Music (Chris "The Greek" Panaghi Club Mix)
TTITLE5=In-Grid - Vive Le Swing (Rivaz Club Remix)
TTITLE6=Robyn - Indestructible (Pitron and Sanna Remix)
TTITLE7=Simmons Ft Flo - Do You Wanna Funk 2K11 (Spacekid and Riju Holgerson Bigr
TTITLE7=oom Remix)
TTITLE8=Nelly Furtado - Night Is Young (Manhattan Clique Remix)
TTITLE9=Samantha Vs Sabrina - Call Me (Andrea T Mendoza Vs Tibet Original Club 
TTITLE9=Mix)
TTITLE10=Northernbeat Ft Lonnie Gordon - A God That Can Dance (Matt Pop Club Re
TTITLE10=mix)
EXTD=
EXTT0=
EXTT1=
EXTT2=
EXTT3=
EXTT4=
EXTT5=
EXTT6=
EXTT7=
EXTT8=
EXTT9=
EXTT10=
PLAYORDER=
